<svg width="134" height="30" viewBox="0 0 134 30" fill="none" xmlns="http://www.w3.org/2000/svg">
<g opacity="0.5">
<path d="M32.1387 11.4187C32.1387 8.04605 29.371 5.8228 25.3177 5.8228C21.4762 5.8228 17.4531 8.5754 17.4531 14.7309C17.4531 19.4346 20.2965 22.898 25.2118 22.898C27.9644 22.898 31.0044 21.3251 31.7757 20.2513C31.7757 20.2513 31.2464 18.2246 29.8247 18.2246C29.0685 18.2246 28.5089 18.512 27.9039 18.7842C27.2536 19.0413 26.4974 19.2833 25.5143 19.2833C24.138 19.2833 21.7786 18.7237 21.7786 15.7896C21.7786 15.7896 22.8827 16.1072 25.4236 16.1072C30.838 16.0921 32.1387 13.8084 32.1387 11.4187ZM25.4992 9.49797C27.3595 9.49797 28.2518 10.5113 28.2518 11.4339C28.2518 12.5228 27.2687 13.2336 25.4841 13.2336C22.8978 13.2336 21.9148 12.8707 21.9148 12.8707C21.8996 11.2977 23.1398 9.49797 25.4992 9.49797Z" fill="#A1A1A1"/>
<path d="M42.2417 19.2984C40.3814 19.2984 39.3983 17.7255 39.232 17.0449C39.0505 16.3644 38.9295 15.4115 38.9295 14.4285L38.9597 9.37699H40.3209C41.4098 9.37699 42.2568 9.05938 42.8466 8.42416C43.4516 7.77382 43.739 6.92687 43.739 5.85306H38.9597L38.9295 3.59955C38.9295 2.88872 38.9295 2.29888 38.9446 1.8754C38.9597 1.42167 38.9749 1.08894 38.99 0.831833C39.0051 0.559598 39.0354 0.317611 39.0656 0.151245C37.6137 0.151245 36.5096 0.453728 35.7534 1.07382C34.9972 1.69391 34.6191 2.70723 34.6191 4.14402L34.5889 15.3662C34.5889 19.9639 36.7819 22.9736 40.9561 22.9736C43.0281 22.9736 44.5254 21.8695 44.5254 20.1756C44.5254 19.5707 44.4498 19.2682 44.3893 19.0867C44.0263 19.1472 43.3457 19.2984 42.2417 19.2984Z" fill="#A1A1A1"/>
<path d="M52.7226 19.5102C51.8001 19.5102 51.1951 18.8296 51.1951 17.7407V9.64922C51.1951 8.93839 51.1951 8.34855 51.2102 7.92507C51.2254 7.47134 51.2405 7.13861 51.2556 6.8815C51.2858 6.60927 51.301 6.36728 51.3312 6.20091C49.8491 6.20091 48.745 6.5034 47.9888 7.12349C47.2326 7.74358 46.8545 8.7569 46.8545 10.1937L46.8242 18.4364C46.8242 21.3856 48.7147 23.019 51.1044 22.9282C52.6168 22.8678 53.9175 22.1569 53.9175 20.5689C53.9175 19.9034 53.8116 19.3892 53.8116 19.3892C53.4486 19.4497 53.2066 19.5102 52.7226 19.5102Z" fill="#A1A1A1"/>
<path d="M47.9131 4.58262C48.2459 4.74899 48.624 4.83973 49.0021 4.83973C49.8944 4.83973 50.6052 4.40113 51.1346 3.55418C51.3463 3.17607 51.4522 2.7526 51.4522 2.29887C51.4522 1.8754 51.3614 1.49729 51.1648 1.13431C50.9682 0.771332 50.6657 0.483973 50.2876 0.287359C49.9549 0.090745 49.5919 0 49.2289 0C48.8055 0 48.4122 0.120993 48.019 0.347856C47.6409 0.574718 47.3233 0.90745 47.1116 1.3158C46.8998 1.67878 46.7939 2.10226 46.7939 2.57111C46.7939 2.99458 46.8847 3.37269 47.0813 3.72054C47.2628 4.0684 47.5502 4.35576 47.9131 4.58262Z" fill="#A1A1A1"/>
<path d="M63.4458 6.2312C62.5383 6.2312 61.6309 6.33707 60.7234 6.53368C59.816 6.7303 58.9841 7.12353 58.243 7.68312C57.502 8.25784 56.897 9.0443 56.4433 10.0576C55.9744 11.0709 55.7476 12.3716 55.7476 13.9597V18.6028C55.7476 20.0396 55.929 21.3554 56.7911 22.0057C57.7288 22.7165 58.8329 22.7468 60.2697 22.7468C60.2394 22.6107 60.2243 22.1872 60.1941 21.915C60.1638 21.6579 60.1487 21.2949 60.1487 20.8714C60.1336 20.4177 60.1336 19.8581 60.1336 19.1472V13.2034C60.1336 11.7969 60.3604 9.99712 62.8257 9.80051C64.2171 9.67951 65.4422 9.15017 65.4422 7.63775C65.4422 7.28989 65.3665 6.62443 65.2002 6.2312H63.4458Z" fill="#A1A1A1"/>
<path d="M7.71332 5.8228C2.66185 5.8228 0 9.36185 0 13.6874C0 17.6801 2.43499 21.4158 6.86637 21.4158C9.16524 21.4158 10.4962 20.4479 10.8289 20.1454V22.1569C10.8289 24.4558 9.93658 25.9833 7.62258 25.9833C6.51852 25.9833 5.68669 25.6808 4.91535 25.3178C4.23477 25.0002 3.73567 24.607 3.05508 24.607C1.33093 24.607 0.846953 26.7395 0.862077 26.7546C2.16276 28.4183 5.11197 29.6585 7.59233 29.6585C12.4774 29.6585 15.1847 26.8 15.1847 21.1436C15.1847 21.1436 15.1847 15.4418 15.1847 14.5343C15.1544 9.36185 12.8707 5.8228 7.71332 5.8228ZM7.68308 17.5894C5.79255 17.5894 4.34064 16.3795 4.34064 13.7479C4.34064 10.9348 5.8228 9.48285 7.68308 9.48285C9.5131 9.48285 10.8592 10.5869 10.8592 13.5361C10.8592 16.561 9.40723 17.5894 7.68308 17.5894Z" fill="#A1A1A1"/>
<path d="M132.805 19.3135C131.883 19.3135 131.278 18.6329 131.278 17.5439V9.43739C131.278 8.72655 131.278 8.13671 131.293 7.71323C131.308 7.25951 131.323 6.92677 131.338 6.66966C131.368 6.39743 131.383 6.15544 131.414 5.98907C129.932 5.98907 128.828 6.29156 128.071 6.91165C127.315 7.53174 126.937 8.54506 126.937 9.98186L126.907 18.2245C126.907 21.1737 128.797 22.8071 131.187 22.7164C132.699 22.6559 134 21.9451 134 20.357C134 19.6916 133.894 19.1774 133.894 19.1774C133.531 19.253 133.289 19.3135 132.805 19.3135Z" fill="#A1A1A1"/>
<path d="M107.85 5.89852C106.928 5.89852 105.99 6.00439 105.068 6.21612C104.145 6.42786 103.298 6.80597 102.542 7.39581C101.786 7.98565 101.181 8.77211 100.697 9.81567C100.228 10.8592 99.9858 12.175 99.9858 13.7933V18.5272C99.9858 19.9942 100.167 21.3403 101.06 22.0057C102.012 22.7317 103.132 22.762 104.614 22.762C104.584 22.6258 104.568 22.2024 104.538 21.915C104.508 21.6428 104.493 21.2798 104.493 20.8412C104.478 20.3875 104.478 19.7976 104.478 19.0868V13.0069C104.478 11.5701 104.72 9.74005 107.23 9.52831C108.652 9.40732 109.907 8.86285 109.907 7.32019C109.907 6.95721 109.832 6.27662 109.65 5.88339L107.85 5.89852Z" fill="#A1A1A1"/>
<path d="M79.2201 9.55843C78.4185 9.19545 77.3749 9.01396 76.1196 9.01396C75.4844 9.01396 74.8795 9.13495 74.3047 9.37694C73.73 9.61892 73.2158 9.95165 72.7621 10.3751C72.3084 10.7986 71.9605 11.2977 71.7034 11.8573C71.4463 12.4169 71.3102 13.037 71.3102 13.6873C71.3102 15.3056 71.7488 16.6063 72.6108 17.5894C73.488 18.5876 74.6677 19.0715 76.1801 19.0715C77.4506 19.0715 78.4639 18.9052 79.2201 18.5573C79.9763 18.2246 80.5208 17.8465 80.8233 17.423H80.9896V19.4496C80.9896 20.5234 80.5208 21.4007 79.568 22.0812C78.6151 22.7618 77.3447 23.1097 75.7567 23.1097C74.5619 23.1097 73.4124 22.8828 72.3084 22.4442C71.2043 21.9905 70.2515 21.3855 69.4348 20.5991C68.6181 19.8126 67.9677 18.89 67.4686 17.8162C66.9846 16.7424 66.7275 15.5778 66.7275 14.3225C66.7275 13.0521 66.9393 11.8573 67.3628 10.723C67.7862 9.58867 68.4063 8.6056 69.223 7.74353C70.0397 6.89657 71.0379 6.21598 72.2176 5.71689C73.3973 5.21779 74.7282 4.96068 76.2406 4.96068C76.9364 4.96068 77.5867 5.05142 78.1765 5.24804C78.7664 5.44465 79.2655 5.71689 79.7041 6.06474C80.1275 6.4126 80.4603 6.82095 80.7023 7.27468C80.9443 7.7284 81.0652 8.2275 81.0652 8.74172V10.3146C81.0652 10.5112 80.8384 10.602 80.7023 10.4961C80.309 10.2239 79.7192 9.78529 79.2201 9.55843Z" fill="#A1A1A1"/>
<path d="M97.5664 19.3589C97.2337 20.1302 96.78 20.7957 96.1901 21.3553C95.6003 21.9149 94.9046 22.3383 94.0878 22.6408C93.2711 22.9433 92.3788 23.0945 91.3957 23.0945H90.5186C89.475 23.0945 88.5222 22.9584 87.6601 22.6711C86.798 22.3837 86.0569 22.0056 85.4368 21.5065C84.8167 21.0225 84.3328 20.4327 83.9849 19.737C83.6371 19.0564 83.4556 18.3002 83.4556 17.4986C83.4556 16.7122 83.6068 15.9862 83.9093 15.3056C84.2118 14.625 84.7109 14.0503 85.3915 13.5512C86.072 13.0672 86.9795 12.674 88.0987 12.3866C89.2179 12.0993 90.5942 11.9632 92.1973 11.9632H93.74V11.7363C93.74 10.4961 93.4375 9.64917 92.8174 9.18032C92.2125 8.72659 91.2445 8.49973 89.9438 8.49973C89.1574 8.49973 88.4617 8.56023 87.8416 8.69634C87.2215 8.83246 86.677 8.99883 86.2233 9.21057C85.7696 9.4223 85.3915 9.63404 85.0739 9.87603C84.7714 10.118 84.5294 10.3298 84.3479 10.5264H84.1815V9.11982C84.1815 8.62072 84.3025 8.12163 84.5294 7.62253C84.7562 7.12343 85.1344 6.65458 85.6334 6.2311C86.1477 5.80763 86.8131 5.45977 87.6298 5.20266C88.4465 4.94555 89.4296 4.80943 90.5942 4.80943C91.5772 4.80943 92.5149 4.93043 93.4224 5.18754C94.3298 5.44465 95.1163 5.86812 95.812 6.47309C96.4926 7.07806 97.0371 7.89476 97.4454 8.90808C97.8538 9.9214 98.0504 11.1918 98.0504 12.7194V16.7726C98.0504 17.7255 97.884 18.5875 97.5664 19.3589ZM93.7702 15.1241H92.1973C91.3655 15.1241 90.6698 15.1695 90.1253 15.2754C89.5657 15.3661 89.1271 15.5173 88.7944 15.6988C88.4617 15.8803 88.2348 16.1072 88.1138 16.3794C87.9777 16.6517 87.9172 16.9693 87.9172 17.3474C87.9172 18.0431 88.1743 18.5875 88.7037 18.9657C89.233 19.3438 89.9741 19.5404 90.9572 19.5404C92.8326 19.5404 93.7702 18.6329 93.7702 16.8331V15.1241Z" fill="#A1A1A1"/>
<path d="M124.85 17.2567C124.85 19.1321 124.215 20.584 122.96 21.6427C121.689 22.6862 119.874 23.2156 117.5 23.2156C116.698 23.2156 115.942 23.1248 115.261 22.9282C114.581 22.7316 113.976 22.4745 113.462 22.1569C112.947 21.8393 112.554 21.4763 112.267 21.068C111.979 20.6596 111.843 20.221 111.843 19.7673V17.7709H112.01C112.252 17.9826 112.554 18.1944 112.947 18.4061C113.325 18.6178 113.764 18.7993 114.233 18.9506C114.717 19.1018 115.216 19.2228 115.73 19.3136C116.26 19.4043 116.774 19.4497 117.303 19.4497C119.436 19.4497 120.509 18.8145 120.509 17.5138C120.509 17.2567 120.464 17.0298 120.358 16.8483C120.267 16.6668 120.086 16.5005 119.814 16.3341C119.557 16.1829 119.179 16.0467 118.71 15.9257C118.226 15.8048 117.606 15.6989 116.849 15.5779C114.974 15.3208 113.583 14.8066 112.675 14.0504C111.768 13.2941 111.314 12.2506 111.314 10.8894C111.314 10.0576 111.495 9.27112 111.858 8.53003C112.221 7.78895 112.721 7.13861 113.386 6.57901C114.036 6.01942 114.823 5.58082 115.745 5.24809C116.668 4.91536 117.681 4.76411 118.816 4.76411C119.814 4.76411 120.676 4.88511 121.387 5.11197C122.097 5.33883 122.672 5.64132 123.141 6.0043C123.595 6.3824 123.928 6.77563 124.139 7.21423C124.351 7.65283 124.457 8.09143 124.457 8.51491V10.1786H124.29C123.837 9.72484 123.141 9.33161 122.218 9.014C121.296 8.6964 120.313 8.54516 119.254 8.54516C117.908 8.54516 116.97 8.72665 116.471 9.10475C115.972 9.48285 115.715 9.93658 115.715 10.5113C115.715 10.723 115.76 10.9196 115.851 11.086C115.942 11.2524 116.108 11.4036 116.365 11.5246C116.623 11.6607 116.97 11.7817 117.439 11.8876C117.908 11.9935 118.513 12.1145 119.254 12.2506C121.099 12.5531 122.506 13.1127 123.459 13.9142C124.381 14.7309 124.85 15.835 124.85 17.2567Z" fill="#A1A1A1"/>
<path d="M74.6832 29.3863C75.0159 29.5526 75.394 29.6434 75.7721 29.6434C76.6644 29.6434 77.3753 29.2048 77.9046 28.3578C78.1163 27.9797 78.2222 27.5562 78.2222 27.1025C78.2222 26.679 78.1315 26.3009 77.9348 25.938C77.7382 25.575 77.4358 25.2876 77.0576 25.091C76.7249 24.8944 76.3619 24.8036 75.999 24.8036C75.5755 24.8036 75.1823 24.9246 74.789 25.1515C74.4109 25.3784 74.0933 25.7111 73.8816 26.1195C73.6698 26.4824 73.564 26.9059 73.564 27.3748C73.564 27.7982 73.6547 28.1763 73.8513 28.5242C74.0328 28.8721 74.305 29.1745 74.6832 29.3863Z" fill="#A1A1A1"/>
<path d="M116.88 29.3863C117.213 29.5526 117.591 29.6434 117.969 29.6434C118.861 29.6434 119.572 29.2048 120.101 28.3578C120.313 27.9797 120.419 27.5562 120.419 27.1025C120.419 26.679 120.328 26.3009 120.132 25.938C119.935 25.575 119.633 25.2876 119.254 25.091C118.922 24.8944 118.559 24.8036 118.196 24.8036C117.772 24.8036 117.379 24.9246 116.986 25.1515C116.608 25.3784 116.29 25.7111 116.078 26.1195C115.867 26.4824 115.761 26.9059 115.761 27.3748C115.761 27.7982 115.851 28.1763 116.048 28.5242C116.23 28.8721 116.502 29.1745 116.88 29.3863Z" fill="#A1A1A1"/>
</g>
</svg>
