<svg width="226" height="50" viewBox="0 0 226 50" fill="none" xmlns="http://www.w3.org/2000/svg">
<path d="M54.2042 19.2585C54.2042 13.5702 49.5363 9.82056 42.7001 9.82056C36.2211 9.82056 29.436 14.463 29.436 24.8447C29.436 32.7777 34.2315 38.619 42.5216 38.619C47.164 38.619 52.2911 35.9662 53.592 34.1551C53.592 34.1551 52.6992 30.737 50.3015 30.737C49.0261 30.737 48.0823 31.2217 47.062 31.6808C45.9652 32.1145 44.6898 32.5226 43.0317 32.5226C40.7105 32.5226 36.7313 31.5788 36.7313 26.6303C36.7313 26.6303 38.5934 27.1659 42.8787 27.1659C52.0105 27.1404 54.2042 23.2887 54.2042 19.2585ZM43.0062 16.019C46.1437 16.019 47.6487 17.728 47.6487 19.284C47.6487 21.1206 45.9907 22.3194 42.9807 22.3194C38.6189 22.3194 36.9609 21.7072 36.9609 21.7072C36.9354 19.0544 39.027 16.019 43.0062 16.019Z" fill="#FFD10D"/>
<path d="M71.2434 32.5481C68.1059 32.5481 66.4479 29.8952 66.1673 28.7474C65.8612 27.5995 65.6572 25.9925 65.6572 24.3345L65.7082 15.8149H68.0039C69.8405 15.8149 71.2689 15.2792 72.2637 14.2079C73.284 13.111 73.7687 11.6826 73.7687 9.87154H65.7082L65.6572 6.07087C65.6572 4.872 65.6572 3.87719 65.6827 3.16297C65.7082 2.39773 65.7337 1.83656 65.7592 1.40292C65.7847 0.943779 65.8357 0.535653 65.8867 0.255066C63.438 0.255066 61.5759 0.765224 60.3005 1.81105C59.0251 2.85687 58.3874 4.5659 58.3874 6.98915L58.3364 25.916C58.3364 33.6704 62.0351 38.7465 69.0752 38.7465C72.5698 38.7465 75.0951 36.8844 75.0951 34.0275C75.0951 33.0072 74.9675 32.4971 74.8655 32.191C74.2533 32.293 73.1054 32.5481 71.2434 32.5481Z" fill="#FFD10D"/>
<path d="M88.9202 32.9052C87.3643 32.9052 86.3439 31.7574 86.3439 29.9208V16.2741C86.3439 15.0752 86.344 14.0804 86.3695 13.3662C86.395 12.6009 86.4205 12.0397 86.446 11.6061C86.497 11.147 86.5225 10.7388 86.5735 10.4583C84.0737 10.4583 82.2117 10.9684 80.9363 12.0142C79.6609 13.0601 79.0232 14.7691 79.0232 17.1923L78.9722 31.0942C78.9722 36.0682 82.1607 38.8231 86.1909 38.67C88.7417 38.568 90.9354 37.3691 90.9354 34.6908C90.9354 33.5684 90.7568 32.7012 90.7568 32.7012C90.1446 32.8032 89.7365 32.9052 88.9202 32.9052Z" fill="#FFD10D"/>
<path d="M80.809 7.72889C81.3701 8.00948 82.0078 8.16253 82.6455 8.16253C84.1505 8.16253 85.3494 7.4228 86.2421 5.99436C86.5993 5.35666 86.7778 4.64244 86.7778 3.8772C86.7778 3.16298 86.6248 2.52528 86.2932 1.91309C85.9616 1.3009 85.4514 0.816253 84.8137 0.48465C84.2525 0.153047 83.6403 0 83.0282 0C82.3139 0 81.6507 0.204063 80.9875 0.586682C80.3498 0.9693 79.8142 1.53047 79.4571 2.21919C79.0999 2.83138 78.9214 3.5456 78.9214 4.33634C78.9214 5.05056 79.0744 5.68826 79.406 6.27494C79.7121 6.86163 80.1968 7.34627 80.809 7.72889Z" fill="#FFD10D"/>
<path d="M107.005 10.5093C105.475 10.5093 103.945 10.6879 102.414 11.0195C100.884 11.3511 99.4807 12.0143 98.2308 12.9581C96.9809 13.9274 95.9606 15.2538 95.1953 16.9628C94.4046 18.6718 94.022 20.8655 94.022 23.5438V31.3748C94.022 33.798 94.3281 36.0172 95.782 37.1141C97.3635 38.3129 99.2256 38.3639 101.649 38.3639C101.598 38.1344 101.572 37.4201 101.521 36.961C101.47 36.5274 101.445 35.9152 101.445 35.201C101.419 34.4357 101.419 33.4919 101.419 32.2931V22.2685C101.419 19.8962 101.802 16.8608 105.96 16.5292C108.306 16.3251 110.373 15.4323 110.373 12.8815C110.373 12.2949 110.245 11.1725 109.964 10.5093H107.005Z" fill="#FFD10D"/>
<path d="M13.009 9.82056C4.48939 9.82056 0 15.7894 0 23.0847C0 29.8188 4.10677 36.1192 11.5806 36.1192C15.4578 36.1192 17.7025 34.4867 18.2637 33.9765V37.3691C18.2637 41.2463 16.7587 43.8226 12.856 43.8226C10.9939 43.8226 9.59097 43.3124 8.29007 42.7002C7.14221 42.1646 6.30045 41.5014 5.1526 41.5014C2.2447 41.5014 1.42844 45.098 1.45395 45.1235C3.64763 47.9294 8.62167 50.021 12.805 50.021C21.044 50.021 25.6099 45.2 25.6099 35.6601C25.6099 35.6601 25.6099 26.0436 25.6099 24.5131C25.5589 15.7894 21.7072 9.82056 13.009 9.82056ZM12.958 29.6657C9.76953 29.6657 7.32077 27.6251 7.32077 23.1867C7.32077 18.4422 9.82054 15.9935 12.958 15.9935C16.0445 15.9935 18.3147 17.8555 18.3147 22.8296C18.3147 27.9312 15.8659 29.6657 12.958 29.6657Z" fill="#FFD10D"/>
<path d="M223.985 32.5734C222.429 32.5734 221.408 31.4256 221.408 29.589V15.9168C221.408 14.7179 221.408 13.7231 221.434 13.0089C221.459 12.2436 221.485 11.6825 221.51 11.2488C221.561 10.7897 221.587 10.3816 221.638 10.101C219.138 10.101 217.276 10.6111 216.001 11.657C214.725 12.7028 214.088 14.4118 214.088 16.8351L214.037 30.7369C214.037 35.7109 217.225 38.4658 221.255 38.3127C223.806 38.2107 226 37.0118 226 34.3335C226 33.2111 225.821 32.3439 225.821 32.3439C225.209 32.4714 224.801 32.5734 223.985 32.5734Z" fill="white"/>
<path d="M181.896 9.94824C180.34 9.94824 178.759 10.1268 177.203 10.4839C175.647 10.841 174.219 11.4787 172.943 12.4735C171.668 13.4683 170.647 14.7947 169.831 16.5548C169.04 18.3148 168.632 20.534 168.632 23.2634V31.2473C168.632 33.7216 168.938 35.9918 170.443 37.1141C172.05 38.3385 173.938 38.3895 176.438 38.3895C176.387 38.16 176.361 37.4457 176.31 36.9611C176.259 36.5019 176.234 35.8898 176.234 35.15C176.208 34.3848 176.208 33.39 176.208 32.1911V21.9369C176.208 19.5137 176.616 16.4272 180.851 16.0701C183.248 15.8661 185.366 14.9478 185.366 12.346C185.366 11.7338 185.238 10.5859 184.932 9.92273L181.896 9.94824Z" fill="white"/>
<path d="M133.61 16.1209C132.258 15.5087 130.498 15.2026 128.381 15.2026C127.31 15.2026 126.289 15.4067 125.32 15.8148C124.351 16.223 123.483 16.7841 122.718 17.4983C121.953 18.2126 121.366 19.0543 120.933 19.9981C120.499 20.9419 120.269 21.9877 120.269 23.0846C120.269 25.8139 121.009 28.0076 122.463 29.6656C123.943 31.3491 125.932 32.1654 128.483 32.1654C130.626 32.1654 132.335 31.8848 133.61 31.2981C134.885 30.7369 135.804 30.0993 136.314 29.385H136.594V32.8031C136.594 34.6142 135.804 36.0936 134.197 37.2415C132.59 38.3893 130.447 38.976 127.769 38.976C125.754 38.976 123.815 38.5934 121.953 37.8537C120.091 37.0884 118.484 36.0681 117.106 34.7417C115.729 33.4153 114.632 31.8593 113.79 30.0482C112.974 28.2372 112.541 26.2731 112.541 24.1559C112.541 22.0132 112.898 19.9981 113.612 18.085C114.326 16.1719 115.372 14.5139 116.749 13.06C118.127 11.6315 119.81 10.4837 121.8 9.64191C123.79 8.80015 126.034 8.36652 128.585 8.36652C129.758 8.36652 130.855 8.51956 131.85 8.85117C132.845 9.18277 133.687 9.64191 134.426 10.2286C135.141 10.8153 135.702 11.504 136.11 12.2692C136.518 13.0345 136.722 13.8762 136.722 14.7435V17.3963C136.722 17.7279 136.339 17.881 136.11 17.7024C135.447 17.2433 134.452 16.5035 133.61 16.1209Z" fill="white"/>
<path d="M164.552 32.65C163.991 33.9509 163.225 35.0733 162.231 36.0171C161.236 36.9609 160.062 37.6751 158.685 38.1852C157.308 38.6954 155.803 38.9505 154.145 38.9505H152.665C150.905 38.9505 149.298 38.7209 147.844 38.2363C146.39 37.7516 145.14 37.1139 144.094 36.2721C143.049 35.4559 142.232 34.4611 141.646 33.2877C141.059 32.1399 140.753 30.8645 140.753 29.5125C140.753 28.1861 141.008 26.9618 141.518 25.8139C142.028 24.666 142.87 23.6967 144.018 22.855C145.166 22.0387 146.696 21.3755 148.584 20.8909C150.471 20.4062 152.793 20.1767 155.496 20.1767H158.098V19.794C158.098 17.7024 157.588 16.2739 156.542 15.4832C155.522 14.718 153.889 14.3353 151.696 14.3353C150.369 14.3353 149.196 14.4374 148.15 14.667C147.104 14.8965 146.186 15.1771 145.421 15.5342C144.656 15.8913 144.018 16.2484 143.482 16.6566C142.972 17.0647 142.564 17.4218 142.258 17.7534H141.977V15.3812C141.977 14.5394 142.181 13.6977 142.564 12.8559C142.947 12.0141 143.584 11.2234 144.426 10.5092C145.293 9.79494 146.416 9.20826 147.793 8.77463C149.171 8.34099 150.829 8.11142 152.793 8.11142C154.451 8.11142 156.032 8.31548 157.563 8.74912C159.093 9.18275 160.42 9.89697 161.593 10.9173C162.741 11.9376 163.659 13.315 164.348 15.0241C165.036 16.7331 165.368 18.8758 165.368 21.4521V28.2882C165.368 29.8952 165.087 31.3491 164.552 32.65ZM158.149 25.5078H155.496C154.094 25.5078 152.92 25.5843 152.002 25.7629C151.058 25.9159 150.318 26.171 149.757 26.4771C149.196 26.7832 148.813 27.1658 148.609 27.625C148.38 28.0841 148.278 28.6198 148.278 29.2575C148.278 30.4308 148.711 31.3491 149.604 31.9868C150.497 32.6245 151.747 32.9561 153.405 32.9561C156.568 32.9561 158.149 31.4256 158.149 28.3902V25.5078Z" fill="white"/>
<path d="M210.568 29.1045C210.568 32.2675 209.497 34.7162 207.379 36.5018C205.237 38.2618 202.176 39.1546 198.171 39.1546C196.819 39.1546 195.544 39.0016 194.396 38.67C193.248 38.3384 192.228 37.9047 191.36 37.3691C190.493 36.8334 189.83 36.2212 189.345 35.5325C188.861 34.8438 188.631 34.104 188.631 33.3388V29.9718H188.912C189.32 30.3289 189.83 30.686 190.493 31.0431C191.131 31.4002 191.871 31.7063 192.661 31.9614C193.478 32.2165 194.319 32.4205 195.187 32.5736C196.079 32.7266 196.947 32.8031 197.839 32.8031C201.436 32.8031 203.247 31.7318 203.247 29.5381C203.247 29.1045 203.171 28.7219 202.992 28.4158C202.839 28.1097 202.533 27.8291 202.074 27.5485C201.64 27.2934 201.002 27.0639 200.212 26.8598C199.395 26.6557 198.35 26.4772 197.074 26.2731C193.911 25.8395 191.564 24.9722 190.034 23.6968C188.504 22.4214 187.738 20.6614 187.738 18.3657C187.738 16.9627 188.044 15.6363 188.657 14.3864C189.269 13.1366 190.111 12.0397 191.233 11.0959C192.33 10.1521 193.656 9.4124 195.212 8.85123C196.768 8.29005 198.477 8.03497 200.39 8.03497C202.074 8.03497 203.528 8.23904 204.727 8.62165C205.925 9.00427 206.895 9.51443 207.685 10.1266C208.451 10.7643 209.012 11.4275 209.369 12.1673C209.726 12.907 209.905 13.6467 209.905 14.3609V17.1668H209.624C208.859 16.4016 207.685 15.7384 206.129 15.2027C204.573 14.667 202.915 14.4119 201.13 14.4119C198.86 14.4119 197.278 14.718 196.436 15.3557C195.595 15.9934 195.161 16.7587 195.161 17.728C195.161 18.0851 195.238 18.4167 195.391 18.6973C195.544 18.9779 195.824 19.2329 196.258 19.437C196.692 19.6666 197.278 19.8706 198.069 20.0492C198.86 20.2277 199.88 20.4318 201.13 20.6614C204.242 21.1715 206.614 22.1153 208.221 23.4673C209.777 24.8447 210.568 26.7068 210.568 29.1045Z" fill="white"/>
<path d="M125.958 49.5619C126.519 49.8425 127.157 49.9955 127.794 49.9955C129.299 49.9955 130.498 49.2558 131.391 47.8273C131.748 47.1896 131.927 46.4754 131.927 45.7102C131.927 44.996 131.774 44.3583 131.442 43.7461C131.11 43.1339 130.6 42.6492 129.963 42.3176C129.401 41.986 128.789 41.833 128.177 41.833C127.463 41.833 126.8 42.037 126.136 42.4197C125.499 42.8023 124.963 43.3635 124.606 44.0522C124.249 44.6644 124.07 45.3786 124.07 46.1693C124.07 46.8835 124.223 47.5212 124.555 48.1079C124.861 48.6946 125.32 49.2048 125.958 49.5619Z" fill="white"/>
<path d="M197.125 49.5619C197.687 49.8425 198.324 49.9955 198.962 49.9955C200.467 49.9955 201.666 49.2558 202.559 47.8273C202.916 47.1896 203.094 46.4754 203.094 45.7102C203.094 44.996 202.941 44.3583 202.61 43.7461C202.278 43.1339 201.768 42.6492 201.13 42.3176C200.569 41.986 199.957 41.833 199.345 41.833C198.63 41.833 197.967 42.037 197.304 42.4197C196.666 42.8023 196.131 43.3635 195.773 44.0522C195.416 44.6644 195.238 45.3786 195.238 46.1693C195.238 46.8835 195.391 47.5212 195.722 48.1079C196.029 48.6946 196.488 49.2048 197.125 49.5619Z" fill="white"/>
</svg>
